<?xml version="1.0" encoding="utf-8"?>
<!-- Generator: Adobe Illustrator 26.3.1, SVG Export Plug-In . SVG Version: 6.00 Build 0)  -->
<svg version="1.1" id="Layer_1" xmlns="http://www.w3.org/2000/svg" xmlns:xlink="http://www.w3.org/1999/xlink" x="0px" y="0px"
	 viewBox="0 0 118.9 155.9" style="enable-background:new 0 0 118.9 155.9;" xml:space="preserve">
<style type="text/css">
	.st0{display:none;}
	.st1{display:inline;fill:#0075A8;}
	.st2{display:none;fill:none;stroke:#FFFFFF;stroke-miterlimit:10;}
	.st3{fill:none;stroke:#FFFFFF;stroke-width:3;stroke-linecap:round;stroke-linejoin:round;stroke-miterlimit:10;}
	.st4{fill:none;stroke:#FFFFFF;stroke-width:3;stroke-miterlimit:10;}
	.st5{display:inline;opacity:0.1;fill:#F96041;enable-background:new    ;}
	.st6{display:inline;fill:none;stroke:#2C2865;stroke-width:3;stroke-miterlimit:10;}
	.st7{display:inline;fill:none;stroke:#2C2865;stroke-width:2;stroke-miterlimit:10;}
	.st8{display:inline;fill:#A59797;}
	.st9{display:inline;}
	.st10{fill:none;stroke:#2C2865;stroke-width:3;stroke-miterlimit:10;}
	.st11{fill:none;stroke:#2C2865;stroke-width:2;stroke-miterlimit:10;}
	.st12{display:inline;opacity:0.15;fill:#BDA9D3;enable-background:new    ;}
	.st13{fill:none;stroke:#2C2865;stroke-width:2;stroke-linecap:round;stroke-linejoin:round;}
	.st14{display:inline;fill:none;stroke:#2C2865;stroke-width:3.6;stroke-linecap:round;stroke-linejoin:round;}
	.st15{fill:none;stroke:#2C2865;stroke-width:4;stroke-linecap:round;stroke-linejoin:round;}
</style>
<g id="Layer_2_00000022526370623830327680000000899444180192792490_" class="st0">
	<rect x="-106.1" y="-166.6" class="st1" width="370.7" height="527.1"/>
</g>
<g id="Layer_1_copy_2">
	<rect x="15.4" y="15.2" class="st2" width="88" height="115.5"/>
	<polygon class="st3" points="57.5,46.4 50.7,46.4 50.7,39.6 42.1,39.6 42.1,46.4 35.3,46.4 35.3,55 42.1,55 42.1,61.8 50.7,61.8 
		50.7,55 57.5,55 	"/>
	<path class="st3" d="M65.3,60c1.1,0,2.1,0.4,2.8,1.1c1.5-3.1,2.3-6.6,2.3-10.3c0-13.3-10.8-24.1-24.1-24.1S22.2,37.5,22.2,50.8
		S33,74.9,46.3,74.9c5.4,0,10.4-1.8,14.4-4.8v-5.5C60.8,62,62.8,60,65.3,60z"/>
	<g>
		<path class="st3" d="M87.5,89.8v-3.2c0-2.4-2-4.4-4.4-4.4l0,0c-2.4,0-4.4,2-4.4,4.4v1.8v-3.7c0-2.4-2-4.4-4.4-4.4l0,0
			c-2.4,0-4.4,2-4.4,4.4v3.7v-24c0-2.4-2-4.4-4.4-4.4l0,0c-2.4,0-4.4,2-4.4,4.4v29.4c-6.3-9.1-11.9-9.4-15.4-7.6
			c-2.4,1.3-2.4,4.3-2.4,4.3s6.4,5.7,10.4,12c2.5,4.1,5,7.2,8.2,10.4c3.2,3.2,7.2,6.3,13.7,6.3c12.2,0,21.1-9.1,21.1-18.9V88.1
			c0-2.4-2-4.4-4.4-4.4l0,0c-2.4,0-4.4,2-4.4,4.4v1.7L87.5,89.8L87.5,89.8z"/>
	</g>
	<path class="st4" d="M103.7,4h-88c-6.1,0-11,4.9-11,11v126.5c0,6.1,4.9,11,11,11h88c6.1,0,11-4.9,11-11V15
		C114.7,8.9,109.8,4,103.7,4z"/>
	<circle class="st4" cx="59.7" cy="141.5" r="5.5"/>
	<rect x="15.7" y="15" class="st4" width="88" height="115.5"/>
</g>
<g id="Layer_1_copy" class="st0">
	<path class="st5" d="M-31.2,23c-13,23.7-20,36.4-21.4,51.9c-3.8,39.1,27.5,91,65.7,94.8c19,1.9,42.1-7.8,49.5-25.1
		c4.2-10,0.3-15.5,0.5-43.6c0.1-29.4,4.5-30.7,2.9-43.3C61.2,20.4,16.8-16.9-7.9-8C-15.7-5.1-20.9,4.3-31.2,23z"/>
	<path class="st6" d="M103.7,4h-88c-6.1,0-11,4.9-11,11v126.5c0,6.1,4.9,11,11,11h88c6.1,0,11-4.9,11-11V15
		C114.7,8.9,109.8,4,103.7,4z"/>
	<circle class="st7" cx="59" cy="141.5" r="5.5"/>
	<rect x="15.7" y="15" class="st7" width="88" height="115.5"/>
	<rect x="15.4" y="15.2" class="st8" width="88" height="115.5"/>
	<g class="st9">
		<path class="st10" d="M86.7,116.8H32c-3.3,0-6-2.7-6-6V73.7c0-3.3,2.7-6,6-6h54.7c3.3,0,6,2.7,6,6v37.2
			C92.7,114.1,90,116.8,86.7,116.8z"/>
		<path class="st10" d="M36.5,67.7V51.9c0-12.6,10.2-22.8,22.8-22.8l0,0c12.6,0,22.8,10.2,22.8,22.8v15.8"/>
		<g>
			<circle class="st11" cx="59.4" cy="83.8" r="7.8"/>
			<path class="st11" d="M69.8,108.5c2.2,0,3.9-1.7,3.9-3.9v-1.3c0-6.5-6.4-10.4-14.3-10.4s-14.3,3.9-14.3,10.4v1.3
				c0,2.2,1.7,3.9,3.9,3.9H69.8z"/>
		</g>
	</g>
</g>
<g id="Layer_1_00000075868594902550978870000014508175777845847983_" class="st0">
	<rect x="15.4" y="15.2" class="st8" width="88" height="115.5"/>
	<path class="st12" d="M-12.4-5.8C-23.5-2.4-28.7,5.6-31.9,10.6c-8,12.4-2.9,18.5-7.4,36.1c-4.8,18.7-16.1,21.8-15.2,37.7
		c0.5,8.2,3.6,13.9,4.3,15.2c3.1,5.6,6.8,8.7,14.5,16c6,5.7,12.2,11.6,17,17c15.6,17.3,13.1,24.8,26.3,32.8
		c2.4,1.5,8.8,5.3,17.5,6.4c17,2.2,29.6-7.3,32-9c28.1-21,11-70.2,8-77.9C59.8,71.1,55,67.6,50.9,51.5c-5.8-22.5,0.2-28.4-7.9-39
		C32.1-1.7,5.9-11.3-12.4-5.8z"/>
	<g class="st9">
		<g>
			<path class="st13" d="M59.4,98.6c-7.1,0-13.5-2.9-18.1-7.5l4.8-4.8L27,82.5l3.8,19.1l4.8-4.8c6.1,6.1,14.5,9.9,23.9,9.9
				c18.6,0,33.8-15.1,33.8-33.8c0-0.3,0-0.7,0-1"/>
			<g>
				<line class="st13" x1="64.7" y1="98" x2="64.7" y2="98"/>
				<line class="st13" x1="70.2" y1="96.2" x2="70.2" y2="96.2"/>
				<line class="st13" x1="75.2" y1="93.2" x2="75.2" y2="93.2"/>
				<line class="st13" x1="79.3" y1="89.1" x2="79.3" y2="89.1"/>
				<line class="st13" x1="82.4" y1="84.2" x2="82.4" y2="84.2"/>
				<line class="st13" x1="84.4" y1="78.7" x2="84.4" y2="78.7"/>
				<line class="st13" x1="85" y1="72.9" x2="85" y2="72.9"/>
			</g>
		</g>
		<g>
			<path class="st13" d="M59.4,47.3c7.1,0,13.5,2.9,18.1,7.5l-4.8,4.8l19.1,3.8L88,44.3l-4.8,4.8c-6.1-6.1-14.5-9.9-23.9-9.9
				c-18.6,0-33.8,15.1-33.8,33.8c0,0.3,0,0.7,0,1"/>
			<g>
				<line class="st13" x1="54" y1="47.8" x2="54" y2="47.8"/>
				<line class="st13" x1="48.5" y1="49.7" x2="48.5" y2="49.7"/>
				<line class="st13" x1="43.6" y1="52.7" x2="43.6" y2="52.7"/>
				<line class="st13" x1="39.4" y1="56.8" x2="39.4" y2="56.8"/>
				<line class="st13" x1="36.3" y1="61.7" x2="36.3" y2="61.7"/>
				<line class="st13" x1="34.4" y1="67.2" x2="34.4" y2="67.2"/>
				<line class="st13" x1="33.7" y1="72.9" x2="33.7" y2="72.9"/>
			</g>
		</g>
		<g class="st0">
			<path class="st14" d="M65.5,63.8h-7.7c-2.5,0-4.6,2.1-4.6,4.6l0,0c0,2.5,2.1,4.6,4.6,4.6c1,0,2.1,0,3.1,0c2.5,0,4.6,2.1,4.6,4.6
				l0,0c0,2.5-2.1,4.6-4.6,4.6h-7.7"/>
			<line class="st14" x1="59.4" y1="63.8" x2="59.4" y2="59.2"/>
			<line class="st14" x1="59.4" y1="86.7" x2="59.4" y2="82.1"/>
		</g>
		<g>
			<path class="st15" d="M65.5,62.8h-7.7c-2.5,0-4.6,2.3-4.6,5.1l0,0c0,2.8,2.1,5.1,4.6,5.1c1,0,2.1,0,3.1,0c2.5,0,4.6,2.3,4.6,5.1
				l0,0c0,2.8-2.1,5.1-4.6,5.1h-7.7"/>
			<line class="st15" x1="59.4" y1="62.8" x2="59.4" y2="57.8"/>
			<line class="st15" x1="59.4" y1="88.1" x2="59.4" y2="83"/>
		</g>
	</g>
	<path class="st6" d="M103.7,4h-88c-6.1,0-11,4.9-11,11v126.5c0,6.1,4.9,11,11,11h88c6.1,0,11-4.9,11-11V15
		C114.7,8.9,109.8,4,103.7,4z"/>
	<circle class="st7" cx="59" cy="141.5" r="5.5"/>
	<rect x="15.7" y="15" class="st7" width="88" height="115.5"/>
</g>
</svg>
