<?xml version="1.0" encoding="utf-8"?>
<!-- Generator: Adobe Illustrator 25.2.0, SVG Export Plug-In . SVG Version: 6.00 Build 0)  -->
<svg version="1.1" id="Layer_1" xmlns="http://www.w3.org/2000/svg" xmlns:xlink="http://www.w3.org/1999/xlink" x="0px" y="0px"
	 width="636.3px" height="258.4px" viewBox="0 0 636.3 258.4" style="enable-background:new 0 0 636.3 258.4;" xml:space="preserve"
	>
<style type="text/css">
	.st0{opacity:3.000000e-02;}
	.st1{fill:#00BC6F;}
	.st2{opacity:3.000000e-02;fill:#00BC6F;enable-background:new    ;}
	.st3{opacity:0.1;fill:none;stroke:#00BC6F;stroke-miterlimit:10;enable-background:new    ;}
</style>
<g id="Layer_2_1_" class="st0">
	<g id="Objects">
		<path class="st1" d="M671.3-189.2l200.6,115l-479,835.8L135.3,606.8C284.7,370.7,403.5,398.7,439.5,341
			c21.4-34.3,18.2-65.9,14.7-97.9c-2.1-20-1.7-41.5,7.4-62.5c10.5-24.6,31-43.1,48.8-62.5c25.5-27.9,46.3-63.3,49.9-98.5
			C567.8-55.7,560.1-117.7,671.3-189.2z"/>
	</g>
</g>
<path class="st2" d="M842.3-207C732.4-79.3,794.9,17,760.7,49c-22,20.6-69.9,5.7-96.6,5.8c-16.8,0-34,2.4-48.5,11.7
	c-17,10.9-26.5,29.2-37.3,45.6c-15.6,23.4-38.7,43.5-66.3,49.6c-58.8,12.6-147.1,67.1-175.2,164.4L604.1,501L964.3-49.7l47.5-72.6
	l119.6-182.9l-44.9-29.4C1060.5-295.5,950.3-336.4,842.3-207z"/>
<path class="st3" d="M842.3-207C732.4-79.3,794.9,17,760.7,49c-22,20.6-69.9,5.7-96.6,5.8c-16.8,0-34,2.4-48.5,11.7
	c-17,10.9-26.5,29.2-37.3,45.6c-15.6,23.4-38.7,43.5-66.3,49.6c-58.8,12.6-147.1,67.1-175.2,164.4L604.1,501L964.3-49.7l47.5-72.6
	l119.6-182.9l-44.9-29.4C1060.5-295.5,950.3-336.4,842.3-207z"/>
</svg>
